<?xml version="1.0" encoding="UTF-8"?>
<svg width="150px" height="150px" viewBox="0 0 150 150" version="1.1" xmlns="http://www.w3.org/2000/svg" xmlns:xlink="http://www.w3.org/1999/xlink">
    <title>geometric shape illustration</title>
    <desc>Created with Sketch.</desc>
    <defs></defs>
    <g id="shape_03" stroke="none" stroke-width="1" fill="none" fill-rule="evenodd">
        <path d="M132.048387,31 L51.9034778,31 C50.7013609,31 49.7260585,31.9753024 49.7260585,33.1774194 L49.7260585,59.7246408 L23.1774194,59.7246408 C21.9753024,59.7246408 21,60.6999432 21,61.9020602 L21,117.473034 C21,118.675151 21.9753024,119.650454 23.1774194,119.650454 L103.322329,119.650454 C104.524446,119.650454 105.499748,118.675151 105.499748,117.473034 L105.499748,90.9258127 L132.048387,90.9258127 C133.250504,90.9258127 134.225806,89.9505102 134.225806,88.7483933 L134.225806,33.1774194 C134.225806,31.9753024 133.250504,31 132.048387,31 Z M101.144909,115.295615 L25.3548387,115.295615 L25.3548387,64.0794795 L49.7260585,64.0794795 L49.7260585,88.7483933 C49.7260585,89.9505102 50.7013609,90.9258127 51.9034778,90.9258127 L101.144909,90.9258127 L101.144909,115.295615 Z M101.144909,86.570974 L54.0808972,86.570974 L54.0808972,64.0794795 L101.144909,64.0794795 L101.144909,86.570974 Z M129.870968,86.570974 L105.499748,86.570974 L105.499748,61.9020602 C105.499748,60.6999432 104.524446,59.7246408 103.322329,59.7246408 L54.0808972,59.7246408 L54.0808972,35.3548387 L129.870968,35.3548387 L129.870968,86.570974 Z" id="Shape" fill="#282828" fill-rule="nonzero"></path>
    </g>
</svg>