<?xml version="1.0" encoding="UTF-8"?>
<svg width="150px" height="150px" viewBox="0 0 150 150" version="1.1" xmlns="http://www.w3.org/2000/svg" xmlns:xlink="http://www.w3.org/1999/xlink">
    <title>geometric shape illustration</title>
    <g id="shape_04" stroke="none" stroke-width="1" fill="none" fill-rule="evenodd">
        <path d="M49.9566942,116.082376 L116.082376,49.9566939 C116.789323,49.249747 117.975105,49.4092394 118.470133,50.2778561 C122.728111,57.7492439 125,66.2110515 125,75 C125,102.614238 102.614238,125 75,125 C66.2110514,125 57.7492438,122.728111 50.2778555,118.470133 C49.4092394,117.975105 49.2497477,116.789323 49.9566942,116.082376 Z M75,121.969697 C100.940647,121.969697 121.969697,100.940647 121.969697,75 C121.969697,67.4226197 120.174203,60.1095727 116.789589,53.5349773 L53.5349768,116.789589 C60.109573,120.174203 67.4226205,121.969697 75,121.969697 Z M31.5298667,99.7221439 C27.2718891,92.2507561 25,83.7889485 25,75 C25,47.3857621 47.3857626,25 75,25 C83.7889486,25 92.2507561,27.2718894 99.7221439,31.5298667 C100.590761,32.0248955 100.750253,33.2106773 100.043306,33.9176242 L33.9176239,100.043306 C33.2106773,100.750253 32.0248948,100.590761 31.5298667,99.7221439 Z M33.2104109,96.4650227 L96.4650227,33.2104106 C89.890427,29.825797 82.5773795,28.030303 75,28.030303 C49.0593527,28.030303 28.030303,49.059353 28.030303,75 C28.030303,82.5773803 29.8257976,89.8904273 33.2104109,96.4650227 Z" id="Shape" stroke="#282828" fill="#282828"></path>
    </g>
</svg>